<?xml version="1.0" encoding="UTF-8"?>
<!-- Generator: Adobe Illustrator 16.0.0, SVG Export Plug-In . SVG Version: 6.00 Build 0)  -->
<!DOCTYPE svg PUBLIC "-//W3C//DTD SVG 1.1//EN" "http://www.w3.org/Graphics/SVG/1.1/DTD/svg11.dtd">
<svg version="1.1" id="Layer_1" xmlns="http://www.w3.org/2000/svg" xmlns:xlink="http://www.w3.org/1999/xlink" x="0px" y="0px" width="710.522px" height="225.61px" viewBox="0 0 710.522 225.61" enable-background="new 0 0 710.522 225.61" xml:space="preserve">
<g>
	<path d="M73.975,81.781c0,11.524-3.602,20.337-10.803,26.44c-7.203,6.104-17.444,9.155-30.725,9.155h-9.741v38.086H0V48.382h34.204   c12.988,0,22.863,2.796,29.626,8.386C70.593,62.36,73.975,70.697,73.975,81.781z M22.705,98.773h7.471   c6.982,0,12.206-1.379,15.674-4.138c3.466-2.758,5.2-6.775,5.2-12.048c0-5.321-1.454-9.252-4.358-11.792   c-2.906-2.538-7.459-3.809-13.66-3.809H22.705V98.773z"/>
	<path d="M138.135,72.04c3.027,0,5.541,0.22,7.544,0.659l-1.685,20.947c-1.807-0.487-4.004-0.732-6.592-0.732   c-7.13,0-12.684,1.831-16.663,5.493c-3.98,3.662-5.969,8.789-5.969,15.381v41.675H92.432V73.578h16.919l3.296,13.77h1.099   c2.538-4.589,5.969-8.288,10.291-11.096C128.357,73.444,133.056,72.04,138.135,72.04z"/>
	<path d="M159.595,52.411c0-7.275,4.052-10.913,12.158-10.913c8.104,0,12.158,3.638,12.158,10.913c0,3.468-1.014,6.165-3.04,8.093   c-2.027,1.93-5.066,2.893-9.119,2.893C163.647,63.397,159.595,59.735,159.595,52.411z M182.886,155.462h-22.339V73.578h22.339   V155.462z"/>
	<path d="M225.806,155.462l-31.201-81.885h23.364l15.82,46.655c1.758,5.909,2.856,11.499,3.296,16.772h0.439   c0.244-4.688,1.342-10.278,3.296-16.772l15.747-46.655h23.364l-31.201,81.885H225.806z"/>
	<path d="M343.652,155.462l-4.321-11.133h-0.586c-3.761,4.737-7.63,8.02-11.609,9.851c-3.98,1.831-9.168,2.747-15.564,2.747   c-7.862,0-14.051-2.245-18.567-6.738c-4.517-4.492-6.775-10.888-6.775-19.189c0-8.69,3.04-15.099,9.119-19.226   c6.079-4.125,15.246-6.409,27.502-6.848l14.209-0.439v-3.589c0-8.3-4.248-12.451-12.744-12.451c-6.544,0-14.234,1.978-23.071,5.933   l-7.397-15.088c9.423-4.931,19.873-7.397,31.348-7.397c10.986,0,19.409,2.393,25.269,7.178c5.859,4.786,8.789,12.061,8.789,21.826   v54.565H343.652z M337.061,117.523l-8.643,0.293c-6.495,0.196-11.329,1.368-14.502,3.516c-3.175,2.149-4.761,5.42-4.761,9.814   c0,6.299,3.613,9.448,10.84,9.448c5.175,0,9.313-1.489,12.415-4.468c3.1-2.978,4.651-6.933,4.651-11.865V117.523z"/>
	<path d="M415.503,156.927c-25.488,0-38.232-13.989-38.232-41.968c0-13.916,3.466-24.547,10.4-31.897   c6.933-7.348,16.87-11.023,29.81-11.023c9.472,0,17.968,1.856,25.488,5.566l-6.592,17.285c-3.516-1.416-6.788-2.575-9.814-3.479   c-3.028-0.903-6.055-1.355-9.082-1.355c-11.622,0-17.432,8.252-17.432,24.756c0,16.016,5.81,24.023,17.432,24.023   c4.296,0,8.276-0.573,11.938-1.721c3.662-1.146,7.324-2.941,10.986-5.383v19.116c-3.614,2.296-7.264,3.882-10.95,4.761   C425.768,156.488,421.117,156.927,415.503,156.927z"/>
	<path d="M447.656,73.578h24.463l15.454,46.069c1.318,4.004,2.221,8.741,2.71,14.209h0.439c0.537-5.028,1.586-9.765,3.149-14.209   l15.161-46.069h23.95l-34.644,92.358c-3.175,8.544-7.703,14.941-13.586,19.189c-5.885,4.248-12.757,6.372-20.618,6.372   c-3.858,0-7.643-0.416-11.353-1.245v-17.725c2.685,0.634,5.614,0.952,8.789,0.952c3.955,0,7.409-1.208,10.364-3.625   c2.954-2.417,5.261-6.068,6.921-10.95l1.318-4.028L447.656,73.578z"/>
	<path d="M579.419,155.462l22.705-107.08h7.471l-21.167,100.049h45.483l-1.685,7.031H579.419z"/>
	<path d="M673.022,120.086l-28.784,35.376h-8.862l34.497-40.942l-17.944-38.672h7.324l15.161,33.838l27.319-33.838h8.789   l-32.813,39.111l18.896,40.503h-7.178L673.022,120.086z"/>
</g>
<line fill="none" stroke="#000000" stroke-width="3" stroke-miterlimit="10" x1="556.036" y1="0" x2="556.036" y2="225.61"/>
</svg>